<mxfile host="app.diagrams.net" modified="2024-04-11T12:38:06.270Z" agent="Mozilla/5.0 (Windows NT 10.0; Win64; x64) AppleWebKit/537.36 (KHTML, like Gecko) Chrome/123.0.0.0 Safari/537.36" version="24.2.3" etag="q6snppJ6Y-asfTPkL68E" type="github">
  <diagram name="Pagina-1" id="7c5oWhVGCtvZ5wrhBG0k">
    <mxGraphModel>
      <root>
        <mxCell id="0" />
        <mxCell id="1" parent="0" />
      </root>
    </mxGraphModel>
  </diagram>
</mxfile>
